<?xml version="1.0" encoding="UTF-8"?>
<svg id="Layer_1" data-name="Layer 1" xmlns="http://www.w3.org/2000/svg" viewBox="0 0 509.15 246.36">
  <defs>
    <style>
      .cls-1 {
        fill: #30539c;
      }

      .cls-2 {
        fill: #8aa7ba;
      }

      .cls-3 {
        fill: #facfe2;
      }

      .cls-4 {
        fill: #e2c0bd;
      }
    </style>
  </defs>
  <path class="cls-1" d="m5.3,83.08l95.78.97s38.29-2.8,54.41,32.31c0,0,13.7,26.97-1.54,58.4,0,0-5.75,12.61-21.24,21.07,0,0-12.44,1.84-56.82,2.7v41.83l-41.98.16v-76l63.77-.61s25.88.68,22.23-20.42c0,0,.35-10.87-15.88-17.89l-100.83-.86-.15-41.76,2.25.12Z"/>
  <rect class="cls-4" x="176.03" y="160.74" width="41.98" height="79.77"/>
  <polygon class="cls-1" points="276.56 184.33 276.56 203.09 310.38 203.09 310.38 240.54 234.57 240.54 234.57 160.74 310.38 160.74 310.38 184.33 276.56 184.33"/>
  <rect class="cls-1" x="260.69" y="56.6" width="41.98" height="94.23" transform="translate(385.39 -177.97) rotate(90)"/>
  <rect class="cls-3" x="369.93" y="55.44" width="41.98" height="96.55" transform="translate(494.63 -287.21) rotate(90)"/>
  <path class="cls-1" d="m506.1,56.1h-8.88v90.07c0,1.19-.22,41.25-30.62,46.23l-58.56,1.78v.22l33.25,46.03-41.99.15-32.44-40.01-.82-40.21,37.08-.3v-.07l36.86-.3c8.47-2.38,14.57-7.13,13.82-19.62l-.67-83.98h-9.43l16.37-25.39,14.99-24.92"/>
  <polygon class="cls-1" points="410.71 170.25 410.56 170.25 410.56 160.74 410.71 170.25"/>
  <circle class="cls-2" cx="197.03" cy="103.71" r="22.13"/>
</svg>